<svg xmlns="http://www.w3.org/2000/svg" xmlns:xlink="http://www.w3.org/1999/xlink" width="352" zoomAndPan="magnify" viewBox="0 0 264 179.999997" height="240" preserveAspectRatio="xMidYMid meet" version="1.0"><defs><clipPath id="f82a509bf6"><path d="M 25.28125 142 L 201 142 L 201 180 L 25.28125 180 Z M 25.28125 142 " clip-rule="nonzero"/></clipPath></defs><path fill="#ffab91" d="M 198.554688 142.960938 L 198.605469 142.960938 C 198.589844 142.960938 198.574219 142.960938 198.554688 142.960938 Z M 151.078125 115.230469 C 151.078125 115.230469 151.074219 115.230469 151.074219 115.230469 L 115.421875 115.230469 L 115.421875 142.960938 L 195.707031 142.960938 C 194.421875 142.960938 193.375 144 193.375 145.289062 C 193.375 146.574219 194.421875 147.617188 195.707031 147.617188 L 236.542969 147.617188 C 237.828125 147.617188 238.875 146.574219 238.875 145.285156 L 238.875 112.902344 C 238.875 111.617188 237.828125 110.574219 236.542969 110.574219 L 153.40625 110.574219 L 153.40625 112.902344 C 153.40625 114.1875 152.363281 115.230469 151.078125 115.230469 Z M 151.078125 115.230469 " fill-opacity="1" fill-rule="evenodd"/><path fill="#80deea" d="M 151.074219 78.1875 L 151.132812 78.1875 C 151.113281 78.1875 151.09375 78.1875 151.074219 78.1875 Z M 151.078125 50.457031 C 151.078125 50.457031 151.078125 50.457031 151.074219 50.457031 L 115.421875 50.457031 L 115.421875 78.1875 L 151.074219 78.1875 C 149.789062 78.1875 148.742188 79.230469 148.742188 80.515625 C 148.742188 81.800781 149.789062 82.84375 151.074219 82.84375 L 236.542969 82.84375 C 237.828125 82.84375 238.875 81.800781 238.875 80.515625 L 238.875 48.128906 C 238.875 46.84375 237.828125 45.800781 236.542969 45.800781 L 153.40625 45.800781 L 153.40625 48.128906 C 153.40625 49.414062 152.363281 50.457031 151.078125 50.457031 Z M 160.652344 50.457031 C 160.625 50.457031 160.597656 50.460938 160.570312 50.460938 C 160.542969 50.460938 160.515625 50.457031 160.488281 50.457031 Z M 198.636719 50.457031 C 198.609375 50.457031 198.582031 50.460938 198.554688 50.460938 C 198.527344 50.460938 198.503906 50.457031 198.476562 50.457031 Z M 198.636719 50.457031 " fill-opacity="1" fill-rule="evenodd"/><path fill="#e57373" d="M 113.089844 45.800781 L 113.117188 45.800781 C 113.109375 45.800781 113.097656 45.800781 113.089844 45.800781 Z M 148.742188 45.800781 L 148.742188 18.074219 L 141.582031 18.074219 C 141.582031 18.074219 141.578125 18.074219 141.578125 18.074219 L 122.644531 18.074219 C 122.625 18.074219 122.605469 18.074219 122.585938 18.074219 C 122.566406 18.074219 122.550781 18.074219 122.53125 18.074219 C 121.269531 18.042969 120.253906 17.011719 120.253906 15.746094 L 120.253906 13.417969 L 75.105469 13.417969 C 73.816406 13.417969 72.773438 14.460938 72.773438 15.746094 L 72.773438 48.128906 C 72.773438 49.417969 73.816406 50.457031 75.105469 50.457031 L 113.089844 50.457031 C 114.378906 50.457031 115.421875 49.414062 115.421875 48.128906 C 115.421875 46.851562 114.390625 45.816406 113.117188 45.800781 Z M 148.742188 45.800781 " fill-opacity="1" fill-rule="evenodd"/><path fill="#6b809b" d="M 103.59375 64.765625 L 84.601562 64.765625 C 83.3125 64.765625 82.269531 65.808594 82.269531 67.09375 L 82.269531 78.1875 L 86.933594 78.1875 L 86.933594 69.421875 L 101.261719 69.421875 L 101.261719 78.1875 L 105.925781 78.1875 L 105.925781 67.09375 C 105.925781 65.808594 104.882812 64.765625 103.59375 64.765625 Z M 103.59375 64.765625 " fill-opacity="1" fill-rule="evenodd"/><path fill="#ffcc80" d="M 113.089844 110.574219 L 113.148438 110.574219 C 113.128906 110.574219 113.109375 110.574219 113.089844 110.574219 Z M 148.742188 82.84375 L 113.125 82.84375 C 113.113281 82.84375 113.101562 82.84375 113.089844 82.84375 C 113.078125 82.84375 113.066406 82.84375 113.054688 82.84375 C 111.785156 82.824219 110.757812 81.789062 110.757812 80.515625 L 110.757812 78.1875 L 75.105469 78.1875 C 73.816406 78.1875 72.773438 79.230469 72.773438 80.515625 L 72.773438 112.902344 C 72.773438 114.1875 73.816406 115.230469 75.105469 115.230469 L 113.089844 115.230469 C 114.378906 115.230469 115.421875 114.1875 115.421875 112.902344 C 115.421875 111.636719 114.410156 110.605469 113.148438 110.574219 L 148.742188 110.574219 Z M 148.742188 82.84375 " fill-opacity="1" fill-rule="evenodd"/><g clip-path="url(#f82a509bf6)"><path fill="#000000" d="M 29.957031 175.34375 L 196.222656 175.34375 L 196.222656 147.617188 L 29.957031 147.617188 Z M 198.554688 180 L 27.625 180 C 26.335938 180 25.292969 178.957031 25.292969 177.671875 L 25.292969 145.285156 C 25.292969 144 26.335938 142.960938 27.625 142.960938 L 198.558594 142.957031 C 199.84375 142.957031 200.886719 144 200.886719 145.289062 L 200.886719 177.671875 C 200.886719 178.957031 199.84375 180 198.558594 180 Z M 198.554688 180 " fill-opacity="1" fill-rule="evenodd"/></g><path fill="#000000" d="M 65.609375 147.617188 C 64.320312 147.617188 63.277344 146.574219 63.277344 145.289062 L 63.277344 134.195312 L 48.949219 134.195312 L 48.949219 145.285156 C 48.949219 146.574219 47.90625 147.617188 46.617188 147.617188 C 45.328125 147.617188 44.285156 146.574219 44.285156 145.289062 L 44.285156 131.867188 C 44.285156 130.582031 45.328125 129.539062 46.617188 129.539062 L 65.609375 129.539062 C 66.898438 129.539062 67.941406 130.582031 67.941406 131.867188 L 67.941406 145.285156 C 67.941406 146.574219 66.898438 147.617188 65.609375 147.617188 Z M 65.609375 147.617188 " fill-opacity="1" fill-rule="evenodd"/><path fill="#000000" d="M 103.59375 147.617188 C 102.308594 147.617188 101.261719 146.574219 101.261719 145.289062 L 101.261719 134.195312 L 86.933594 134.195312 L 86.933594 145.285156 C 86.933594 146.574219 85.890625 147.617188 84.601562 147.617188 C 83.316406 147.617188 82.269531 146.574219 82.269531 145.289062 L 82.269531 131.867188 C 82.269531 130.582031 83.3125 129.539062 84.601562 129.539062 L 103.59375 129.539062 C 104.882812 129.539062 105.925781 130.582031 105.925781 131.867188 L 105.925781 145.285156 C 105.925781 146.574219 104.882812 147.617188 103.59375 147.617188 Z M 103.59375 147.617188 " fill-opacity="1" fill-rule="evenodd"/><path fill="#000000" d="M 179.566406 115.230469 C 178.277344 115.230469 177.234375 114.1875 177.234375 112.902344 L 177.234375 101.808594 L 162.902344 101.808594 L 162.902344 112.902344 C 162.902344 114.1875 161.859375 115.230469 160.570312 115.230469 C 159.285156 115.230469 158.242188 114.1875 158.242188 112.902344 L 158.242188 99.480469 C 158.242188 98.195312 159.285156 97.152344 160.570312 97.152344 L 179.566406 97.152344 C 180.851562 97.152344 181.894531 98.195312 181.894531 99.480469 L 181.894531 112.902344 C 181.894531 114.1875 180.851562 115.230469 179.566406 115.230469 Z M 179.566406 115.230469 " fill-opacity="1" fill-rule="evenodd"/><path fill="#000000" d="M 217.550781 115.230469 C 216.261719 115.230469 215.21875 114.1875 215.21875 112.902344 L 215.21875 101.808594 L 200.886719 101.808594 L 200.886719 112.902344 C 200.886719 114.1875 199.84375 115.230469 198.558594 115.230469 C 197.269531 115.230469 196.226562 114.1875 196.226562 112.902344 L 196.226562 99.480469 C 196.226562 98.195312 197.269531 97.152344 198.558594 97.152344 L 217.550781 97.152344 C 218.835938 97.152344 219.882812 98.195312 219.882812 99.480469 L 219.882812 112.902344 C 219.882812 114.1875 218.835938 115.230469 217.550781 115.230469 Z M 217.550781 115.230469 " fill-opacity="1" fill-rule="evenodd"/><path fill="#000000" d="M 236.542969 147.617188 L 195.707031 147.617188 C 194.421875 147.617188 193.375 146.574219 193.375 145.289062 C 193.378906 144 194.421875 142.960938 195.707031 142.960938 L 234.210938 142.957031 L 234.210938 115.230469 L 115.421875 115.230469 L 115.421875 145.285156 C 115.421875 146.574219 114.378906 147.617188 113.089844 147.617188 C 111.804688 147.617188 110.757812 146.574219 110.757812 145.289062 L 110.757812 112.902344 C 110.757812 111.617188 111.800781 110.574219 113.089844 110.574219 L 236.542969 110.574219 C 237.832031 110.574219 238.875 111.617188 238.875 112.902344 L 238.875 145.285156 C 238.875 146.574219 237.828125 147.617188 236.542969 147.617188 Z M 236.542969 147.617188 " fill-opacity="1" fill-rule="evenodd"/><path fill="#000000" d="M 103.59375 82.84375 C 102.308594 82.84375 101.261719 81.800781 101.261719 80.515625 L 101.261719 69.421875 L 86.933594 69.421875 L 86.933594 80.515625 C 86.933594 81.800781 85.890625 82.84375 84.601562 82.84375 C 83.316406 82.84375 82.269531 81.800781 82.269531 80.515625 L 82.269531 67.09375 C 82.269531 65.808594 83.3125 64.765625 84.601562 64.765625 L 103.59375 64.765625 C 104.882812 64.765625 105.925781 65.808594 105.925781 67.09375 L 105.925781 80.515625 C 105.925781 81.800781 104.882812 82.84375 103.59375 82.84375 Z M 103.59375 82.84375 " fill-opacity="1" fill-rule="evenodd"/><path fill="#000000" d="M 151.074219 115.230469 C 149.789062 115.230469 148.742188 114.1875 148.742188 112.902344 L 148.742188 82.84375 L 77.4375 82.84375 L 77.4375 110.574219 L 113.089844 110.574219 C 114.378906 110.574219 115.421875 111.617188 115.421875 112.902344 C 115.421875 114.1875 114.378906 115.230469 113.089844 115.230469 L 75.105469 115.230469 C 73.816406 115.230469 72.773438 114.1875 72.773438 112.902344 L 72.773438 80.515625 C 72.773438 79.230469 73.816406 78.1875 75.105469 78.1875 L 151.074219 78.1875 C 152.363281 78.1875 153.40625 79.230469 153.40625 80.515625 L 153.40625 112.902344 C 153.40625 114.1875 152.363281 115.230469 151.074219 115.230469 Z M 151.074219 115.230469 " fill-opacity="1" fill-rule="evenodd"/><path fill="#000000" d="M 179.566406 50.457031 C 178.277344 50.457031 177.234375 49.417969 177.234375 48.128906 L 177.234375 37.035156 L 162.902344 37.035156 L 162.902344 48.128906 C 162.902344 49.414062 161.859375 50.460938 160.570312 50.460938 C 159.285156 50.457031 158.242188 49.417969 158.242188 48.128906 L 158.242188 34.710938 C 158.242188 33.421875 159.285156 32.382812 160.570312 32.382812 L 179.566406 32.378906 C 180.851562 32.378906 181.894531 33.421875 181.894531 34.710938 L 181.894531 48.128906 C 181.894531 49.414062 180.851562 50.460938 179.566406 50.457031 Z M 179.566406 50.457031 " fill-opacity="1" fill-rule="evenodd"/><path fill="#000000" d="M 217.550781 50.457031 C 216.261719 50.457031 215.21875 49.417969 215.21875 48.128906 L 215.21875 37.035156 L 200.886719 37.035156 L 200.886719 48.128906 C 200.886719 49.414062 199.84375 50.460938 198.558594 50.460938 C 197.269531 50.457031 196.226562 49.417969 196.226562 48.128906 L 196.226562 34.710938 C 196.226562 33.421875 197.269531 32.382812 198.558594 32.382812 L 217.550781 32.378906 C 218.835938 32.378906 219.882812 33.421875 219.882812 34.710938 L 219.882812 48.128906 C 219.882812 49.414062 218.835938 50.460938 217.550781 50.457031 Z M 217.550781 50.457031 " fill-opacity="1" fill-rule="evenodd"/><path fill="#000000" d="M 151.074219 82.84375 C 149.789062 82.84375 148.742188 81.800781 148.742188 80.515625 C 148.742188 79.230469 149.789062 78.1875 151.074219 78.1875 L 234.210938 78.1875 L 234.210938 50.457031 L 115.421875 50.457031 L 115.421875 80.515625 C 115.421875 81.800781 114.378906 82.84375 113.089844 82.84375 C 111.800781 82.84375 110.757812 81.800781 110.757812 80.515625 L 110.757812 48.128906 C 110.757812 46.84375 111.800781 45.800781 113.089844 45.800781 L 236.542969 45.800781 C 237.828125 45.800781 238.875 46.84375 238.875 48.128906 L 238.875 80.515625 C 238.875 81.800781 237.828125 82.84375 236.542969 82.84375 Z M 151.074219 82.84375 " fill-opacity="1" fill-rule="evenodd"/><path fill="#000000" d="M 103.59375 18.074219 C 102.308594 18.074219 101.261719 17.03125 101.261719 15.746094 L 101.261719 4.652344 L 86.933594 4.652344 L 86.933594 15.746094 C 86.933594 17.03125 85.890625 18.074219 84.601562 18.074219 C 83.316406 18.074219 82.269531 17.03125 82.269531 15.746094 L 82.269531 2.324219 C 82.269531 1.039062 83.3125 -0.00390625 84.601562 -0.00390625 L 103.59375 -0.00390625 C 104.882812 -0.00390625 105.925781 1.039062 105.925781 2.324219 L 105.925781 15.746094 C 105.925781 17.03125 104.882812 18.074219 103.59375 18.074219 Z M 103.59375 18.074219 " fill-opacity="1" fill-rule="evenodd"/><path fill="#000000" d="M 151.074219 50.457031 C 149.789062 50.457031 148.742188 49.417969 148.742188 48.128906 L 148.742188 18.074219 L 77.4375 18.074219 L 77.4375 45.800781 L 113.089844 45.800781 C 114.378906 45.800781 115.421875 46.84375 115.421875 48.128906 C 115.421875 49.414062 114.378906 50.457031 113.089844 50.457031 L 75.105469 50.457031 C 73.816406 50.457031 72.773438 49.417969 72.773438 48.128906 L 72.773438 15.746094 C 72.773438 14.460938 73.816406 13.417969 75.105469 13.417969 L 151.074219 13.414062 C 152.363281 13.414062 153.40625 14.460938 153.40625 15.746094 L 153.40625 48.128906 C 153.40625 49.414062 152.363281 50.457031 151.074219 50.457031 Z M 151.074219 50.457031 " fill-opacity="1" fill-rule="evenodd"/><path fill="#000000" d="M 141.578125 18.074219 C 140.292969 18.074219 139.246094 17.03125 139.246094 15.746094 L 139.246094 4.652344 L 124.917969 4.652344 L 124.917969 15.746094 C 124.917969 17.03125 123.875 18.074219 122.585938 18.074219 C 121.300781 18.074219 120.253906 17.03125 120.253906 15.746094 L 120.253906 2.324219 C 120.253906 1.039062 121.300781 -0.00390625 122.585938 -0.00390625 L 141.578125 -0.00390625 C 142.867188 -0.00390625 143.910156 1.039062 143.910156 2.324219 L 143.910156 15.746094 C 143.910156 17.03125 142.867188 18.074219 141.578125 18.074219 Z M 141.578125 18.074219 " fill-opacity="1" fill-rule="evenodd"/><path fill="#ffcc80" d="M 101.261719 69.421875 L 86.933594 69.421875 L 86.933594 78.1875 L 101.261719 78.1875 Z M 101.261719 69.421875 " fill-opacity="1" fill-rule="evenodd"/><path fill="#ffab91" d="M 162.902344 101.808594 L 177.230469 101.808594 L 177.230469 110.574219 L 162.902344 110.574219 Z M 162.902344 101.808594 " fill-opacity="1" fill-rule="evenodd"/><path fill="#ffab91" d="M 200.886719 101.808594 L 200.886719 110.574219 L 215.214844 110.574219 L 215.21875 101.808594 Z M 200.886719 101.808594 " fill-opacity="1" fill-rule="evenodd"/><path fill="#90caf9" d="M 195.707031 147.617188 L 113.117188 147.617188 C 113.105469 147.617188 113.097656 147.617188 113.089844 147.617188 C 113.082031 147.617188 113.074219 147.617188 113.0625 147.617188 L 84.628906 147.617188 C 84.617188 147.617188 84.609375 147.617188 84.601562 147.617188 C 84.59375 147.617188 84.585938 147.617188 84.574219 147.617188 L 46.640625 147.617188 C 46.632812 147.617188 46.625 147.617188 46.617188 147.617188 C 46.609375 147.617188 46.601562 147.617188 46.589844 147.617188 L 29.957031 147.617188 L 29.957031 175.34375 L 196.222656 175.34375 L 196.222656 147.617188 Z M 195.707031 147.617188 " fill-opacity="1" fill-rule="evenodd"/><path fill="#90caf9" d="M 86.933594 142.960938 L 101.261719 142.960938 L 101.261719 134.191406 L 86.933594 134.191406 Z M 86.933594 142.960938 " fill-opacity="1" fill-rule="evenodd"/><path fill="#90caf9" d="M 48.949219 134.191406 L 63.277344 134.191406 L 63.277344 142.960938 L 48.949219 142.960938 Z M 48.949219 134.191406 " fill-opacity="1" fill-rule="evenodd"/><path fill="#e57373" d="M 124.917969 13.417969 L 139.246094 13.417969 L 139.246094 4.652344 L 124.917969 4.652344 Z M 124.917969 13.417969 " fill-opacity="1" fill-rule="evenodd"/><path fill="#e57373" d="M 101.261719 13.417969 L 101.261719 4.652344 L 86.933594 4.652344 L 86.933594 13.417969 Z M 101.261719 13.417969 " fill-opacity="1" fill-rule="evenodd"/><path fill="#80deea" d="M 177.230469 37.035156 L 162.902344 37.035156 L 162.902344 45.800781 L 177.230469 45.800781 Z M 177.230469 37.035156 " fill-opacity="1" fill-rule="evenodd"/><path fill="#80deea" d="M 200.886719 37.035156 L 200.886719 45.800781 L 215.214844 45.800781 L 215.21875 37.035156 Z M 200.886719 37.035156 " fill-opacity="1" fill-rule="evenodd"/></svg>