<svg xmlns="http://www.w3.org/2000/svg" xmlns:xlink="http://www.w3.org/1999/xlink" width="352" zoomAndPan="magnify" viewBox="0 0 264 179.999997" height="240" preserveAspectRatio="xMidYMid meet" version="1.0"><defs><clipPath id="258d985efa"><path d="M 142 0 L 232.863281 0 L 232.863281 116 L 142 116 Z M 142 0 " clip-rule="nonzero"/></clipPath><clipPath id="7915f30b7d"><path d="M 173 0 L 232.863281 0 L 232.863281 116 L 173 116 Z M 173 0 " clip-rule="nonzero"/></clipPath></defs><path fill="#2085b7" d="M 146.953125 173.847656 C 146.953125 174.050781 146.886719 174.25 146.761719 174.449219 C 146.636719 174.652344 146.445312 174.851562 146.195312 175.046875 C 145.941406 175.246094 145.628906 175.441406 145.253906 175.632812 C 144.878906 175.828125 144.445312 176.015625 143.953125 176.203125 C 143.457031 176.390625 142.90625 176.570312 142.296875 176.75 C 141.6875 176.925781 141.027344 177.101562 140.308594 177.269531 C 139.589844 177.4375 138.824219 177.597656 138.003906 177.753906 C 137.183594 177.910156 136.320312 178.058594 135.40625 178.199219 C 134.492188 178.34375 133.539062 178.480469 132.539062 178.605469 C 131.542969 178.734375 130.507812 178.855469 129.433594 178.964844 C 128.359375 179.078125 127.253906 179.183594 126.113281 179.277344 C 124.976562 179.371094 123.8125 179.457031 122.617188 179.535156 C 121.425781 179.613281 120.210938 179.679688 118.976562 179.738281 C 117.742188 179.796875 116.488281 179.847656 115.222656 179.886719 C 113.957031 179.925781 112.683594 179.953125 111.398438 179.976562 C 110.113281 179.996094 108.824219 180.003906 107.535156 180.003906 C 106.242188 180.003906 104.953125 179.996094 103.667969 179.976562 C 102.382812 179.953125 101.109375 179.925781 99.84375 179.886719 C 98.578125 179.847656 97.324219 179.796875 96.089844 179.738281 C 94.855469 179.679688 93.640625 179.613281 92.449219 179.535156 C 91.253906 179.457031 90.089844 179.371094 88.953125 179.277344 C 87.8125 179.183594 86.707031 179.078125 85.632812 178.964844 C 84.558594 178.855469 83.523438 178.734375 82.527344 178.605469 C 81.527344 178.480469 80.574219 178.34375 79.660156 178.199219 C 78.746094 178.058594 77.882812 177.910156 77.0625 177.753906 C 76.242188 177.597656 75.476562 177.4375 74.757812 177.269531 C 74.039062 177.101562 73.378906 176.925781 72.769531 176.75 C 72.160156 176.570312 71.609375 176.390625 71.113281 176.203125 C 70.621094 176.015625 70.1875 175.828125 69.8125 175.632812 C 69.4375 175.441406 69.125 175.246094 68.871094 175.046875 C 68.621094 174.851562 68.429688 174.652344 68.304688 174.449219 C 68.179688 174.25 68.113281 174.050781 68.113281 173.847656 C 68.113281 173.644531 68.179688 173.445312 68.304688 173.242188 C 68.429688 173.042969 68.621094 172.84375 68.871094 172.644531 C 69.125 172.449219 69.4375 172.253906 69.8125 172.058594 C 70.1875 171.867188 70.621094 171.675781 71.113281 171.492188 C 71.609375 171.304688 72.160156 171.121094 72.769531 170.945312 C 73.378906 170.765625 74.039062 170.59375 74.757812 170.425781 C 75.476562 170.257812 76.242188 170.097656 77.0625 169.941406 C 77.882812 169.785156 78.746094 169.636719 79.660156 169.492188 C 80.574219 169.351562 81.527344 169.214844 82.527344 169.085938 C 83.523438 168.960938 84.558594 168.839844 85.632812 168.726562 C 86.707031 168.617188 87.8125 168.511719 88.953125 168.417969 C 90.089844 168.320312 91.253906 168.234375 92.449219 168.160156 C 93.640625 168.082031 94.855469 168.015625 96.089844 167.957031 C 97.324219 167.898438 98.578125 167.847656 99.84375 167.808594 C 101.109375 167.769531 102.382812 167.738281 103.667969 167.71875 C 104.953125 167.699219 106.242188 167.691406 107.535156 167.691406 C 108.824219 167.691406 110.113281 167.699219 111.398438 167.71875 C 112.683594 167.738281 113.957031 167.769531 115.222656 167.808594 C 116.488281 167.847656 117.742188 167.898438 118.976562 167.957031 C 120.210938 168.015625 121.425781 168.082031 122.617188 168.160156 C 123.8125 168.234375 124.976562 168.320312 126.113281 168.417969 C 127.253906 168.511719 128.359375 168.617188 129.433594 168.726562 C 130.507812 168.839844 131.542969 168.960938 132.539062 169.085938 C 133.539062 169.214844 134.492188 169.351562 135.40625 169.492188 C 136.320312 169.636719 137.183594 169.785156 138.003906 169.941406 C 138.824219 170.097656 139.589844 170.257812 140.308594 170.425781 C 141.027344 170.59375 141.6875 170.765625 142.296875 170.945312 C 142.90625 171.121094 143.457031 171.304688 143.953125 171.492188 C 144.445312 171.675781 144.878906 171.867188 145.253906 172.058594 C 145.628906 172.253906 145.941406 172.449219 146.195312 172.644531 C 146.445312 172.84375 146.636719 173.042969 146.761719 173.242188 C 146.886719 173.445312 146.953125 173.644531 146.953125 173.847656 Z M 146.953125 173.847656 " fill-opacity="1" fill-rule="nonzero"/><path fill="#d5e9f2" d="M 137.609375 46.167969 C 127.367188 31.269531 102.457031 31.269531 102.457031 31.269531 C 102.457031 31.269531 77.542969 31.269531 67.300781 46.167969 C 57.902344 59.84375 57.988281 78.53125 57.988281 78.53125 L 67.070312 90.171875 L 137.839844 90.171875 L 146.921875 78.53125 C 146.921875 78.53125 147.011719 59.84375 137.609375 46.167969 Z M 137.609375 46.167969 " fill-opacity="1" fill-rule="nonzero"/><path fill="#a8d7e9" d="M 137.625 46.167969 C 133.605469 40.332031 127.335938 36.773438 121.199219 34.613281 C 124.375 36.59375 127.257812 39.105469 129.472656 42.324219 C 138.875 56.003906 138.785156 74.6875 138.785156 74.6875 L 129.707031 86.328125 L 64.089844 86.328125 L 67.085938 90.171875 L 137.855469 90.171875 L 146.933594 78.53125 C 146.933594 78.53125 147.023438 59.84375 137.625 46.167969 Z M 137.625 46.167969 " fill-opacity="1" fill-rule="nonzero"/><path fill="#002b43" d="M 125.035156 49.195312 C 115.492188 41.976562 89.417969 41.976562 79.875 49.195312 C 69.511719 57.03125 69.863281 75.734375 69.863281 75.734375 L 135.054688 75.734375 C 135.054688 75.734375 135.398438 57.03125 125.035156 49.195312 Z M 125.035156 49.195312 " fill-opacity="1" fill-rule="nonzero"/><path fill="#000f16" d="M 70.132812 75.734375 C 70.773438 69.632812 72.890625 59.421875 79.875 54.140625 C 89.417969 46.925781 115.492188 46.925781 125.035156 54.140625 C 132.019531 59.421875 134.136719 69.628906 134.773438 75.734375 L 135.054688 75.734375 C 135.054688 75.734375 135.40625 57.03125 125.042969 49.195312 C 115.5 41.976562 89.425781 41.976562 79.878906 49.195312 C 69.511719 57.03125 69.863281 75.734375 69.863281 75.734375 Z M 70.132812 75.734375 " fill-opacity="1" fill-rule="nonzero"/><path fill="#d5e9f2" d="M 94.65625 27.777344 L 110.253906 27.777344 C 110.441406 27.777344 110.617188 27.8125 110.789062 27.882812 C 110.960938 27.953125 111.113281 28.054688 111.242188 28.183594 C 111.375 28.316406 111.476562 28.464844 111.546875 28.636719 C 111.617188 28.808594 111.652344 28.988281 111.652344 29.171875 L 111.652344 34.0625 C 111.652344 34.246094 111.617188 34.425781 111.546875 34.597656 C 111.476562 34.769531 111.375 34.917969 111.242188 35.050781 C 111.113281 35.179688 110.960938 35.28125 110.789062 35.351562 C 110.617188 35.421875 110.441406 35.460938 110.253906 35.460938 L 94.65625 35.460938 C 94.472656 35.460938 94.292969 35.421875 94.121094 35.351562 C 93.949219 35.28125 93.800781 35.179688 93.667969 35.050781 C 93.539062 34.917969 93.4375 34.769531 93.367188 34.597656 C 93.296875 34.425781 93.261719 34.246094 93.261719 34.0625 L 93.261719 29.171875 C 93.261719 28.988281 93.296875 28.808594 93.367188 28.636719 C 93.4375 28.464844 93.539062 28.316406 93.667969 28.183594 C 93.800781 28.054688 93.949219 27.953125 94.121094 27.882812 C 94.292969 27.8125 94.472656 27.777344 94.65625 27.777344 Z M 94.65625 27.777344 " fill-opacity="1" fill-rule="nonzero"/><path fill="#d5e9f2" d="M 98.304688 31.5 L 100.398438 11.945312 L 103.191406 11.945312 L 106.609375 31.617188 Z M 98.304688 31.5 " fill-opacity="1" fill-rule="nonzero"/><path fill="#d5e9f2" d="M 105.25 11.945312 C 105.25 12.390625 105.164062 12.820312 104.992188 13.230469 C 104.820312 13.644531 104.578125 14.007812 104.261719 14.324219 C 103.945312 14.640625 103.582031 14.882812 103.167969 15.054688 C 102.757812 15.226562 102.328125 15.3125 101.882812 15.3125 C 101.433594 15.3125 101.003906 15.226562 100.59375 15.054688 C 100.179688 14.882812 99.816406 14.640625 99.5 14.324219 C 99.183594 14.007812 98.941406 13.644531 98.769531 13.230469 C 98.601562 12.820312 98.515625 12.390625 98.515625 11.945312 C 98.515625 11.496094 98.601562 11.066406 98.769531 10.65625 C 98.941406 10.242188 99.183594 9.878906 99.5 9.5625 C 99.816406 9.246094 100.179688 9.003906 100.59375 8.832031 C 101.003906 8.664062 101.433594 8.578125 101.882812 8.578125 C 102.328125 8.578125 102.757812 8.664062 103.167969 8.832031 C 103.582031 9.003906 103.945312 9.246094 104.261719 9.5625 C 104.578125 9.878906 104.820312 10.242188 104.992188 10.65625 C 105.164062 11.066406 105.25 11.496094 105.25 11.945312 Z M 105.25 11.945312 " fill-opacity="1" fill-rule="nonzero"/><path fill="#a8d7e9" d="M 103.980469 9.304688 C 104.152344 9.652344 104.261719 10.015625 104.308594 10.398438 C 104.355469 10.78125 104.339844 11.160156 104.257812 11.535156 C 104.171875 11.910156 104.03125 12.261719 103.828125 12.589844 C 103.621094 12.917969 103.371094 13.199219 103.070312 13.441406 C 102.769531 13.683594 102.4375 13.867188 102.070312 13.992188 C 101.707031 14.117188 101.332031 14.179688 100.949219 14.179688 C 100.5625 14.175781 100.1875 14.109375 99.828125 13.976562 C 99.464844 13.847656 99.132812 13.660156 98.835938 13.417969 C 98.949219 13.640625 99.082031 13.851562 99.242188 14.042969 C 99.402344 14.238281 99.578125 14.414062 99.777344 14.566406 C 99.976562 14.722656 100.1875 14.851562 100.414062 14.957031 C 100.640625 15.066406 100.878906 15.144531 101.125 15.199219 C 101.367188 15.253906 101.617188 15.28125 101.867188 15.277344 C 102.117188 15.277344 102.367188 15.25 102.609375 15.191406 C 102.855469 15.132812 103.089844 15.050781 103.316406 14.941406 C 103.542969 14.832031 103.753906 14.699219 103.949219 14.542969 C 104.144531 14.386719 104.320312 14.210938 104.476562 14.011719 C 104.636719 13.816406 104.769531 13.605469 104.878906 13.378906 C 104.988281 13.15625 105.070312 12.917969 105.125 12.675781 C 105.183594 12.429688 105.214844 12.183594 105.214844 11.933594 C 105.214844 11.679688 105.191406 11.433594 105.136719 11.1875 C 105.082031 10.941406 105 10.707031 104.894531 10.480469 C 104.789062 10.253906 104.65625 10.039062 104.503906 9.839844 C 104.347656 9.644531 104.175781 9.464844 103.980469 9.304688 Z M 103.980469 9.304688 " fill-opacity="1" fill-rule="nonzero"/><path fill="#a8d7e9" d="M 67.070312 90.171875 L 137.839844 90.171875 L 146.921875 78.53125 L 57.988281 78.53125 Z M 67.070312 90.171875 " fill-opacity="1" fill-rule="nonzero"/><path fill="#a8d7e9" d="M 111.652344 31.777344 C 111.652344 32.265625 111.335938 32.671875 110.953125 32.671875 L 103.152344 32.671875 C 102.769531 32.671875 102.457031 32.277344 102.457031 31.777344 L 102.457031 28.664062 C 102.457031 28.171875 102.769531 27.765625 103.152344 27.765625 L 110.953125 27.765625 C 111.335938 27.765625 111.652344 28.164062 111.652344 28.664062 Z M 111.652344 31.777344 " fill-opacity="1" fill-rule="nonzero"/><path fill="#ffffff" d="M 88.523438 37.691406 C 87.402344 35.519531 82.257812 36.761719 80.582031 37.554688 C 79.210938 38.199219 76.730469 39.632812 75.152344 41.144531 C 73.882812 42.15625 72.765625 43.3125 71.800781 44.617188 C 70.996094 45.707031 69.46875 47.949219 70.457031 49.378906 C 71.53125 50.949219 73.347656 49.585938 74.253906 48.679688 C 76.601562 46.316406 78.40625 43.785156 81.59375 42.34375 C 83.152344 41.648438 89.863281 40.25 88.523438 37.691406 Z M 88.523438 37.691406 " fill-opacity="1" fill-rule="nonzero"/><path fill="#ffffff" d="M 100.527344 9.996094 C 98.9375 10.382812 99.546875 13.703125 101.503906 11.914062 C 103.058594 10.492188 101.429688 9.601562 100.527344 9.996094 Z M 100.527344 9.996094 " fill-opacity="1" fill-rule="nonzero"/><path fill="#d5e9f2" d="M 150.695312 116.539062 L 136.863281 92.683594 L 68.046875 92.683594 L 54.214844 116.539062 C 54.214844 116.539062 54.808594 126.484375 58.144531 135.570312 C 63.273438 149.539062 68.167969 155.125 68.167969 155.125 L 85.09375 161.664062 L 102.304688 163.246094 L 102.304688 163.277344 C 102.304688 163.277344 102.421875 163.261719 102.460938 163.261719 C 102.5 163.261719 102.613281 163.277344 102.613281 163.277344 L 102.613281 163.246094 L 119.824219 161.664062 L 136.753906 155.128906 C 136.753906 155.128906 142.894531 147.210938 146.773438 135.570312 C 149.824219 126.382812 150.695312 116.539062 150.695312 116.539062 Z M 150.695312 116.539062 " fill-opacity="1" fill-rule="nonzero"/><path fill="#a8d7e9" d="M 136.863281 92.683594 L 120.566406 92.683594 L 134.398438 116.539062 C 134.398438 116.539062 133.53125 126.382812 130.46875 135.570312 C 126.597656 147.210938 124.859375 151.847656 120.453125 155.125 C 116.8125 157.832031 103.523438 161.664062 103.523438 161.664062 L 94.308594 162.511719 L 102.300781 163.246094 L 102.300781 163.277344 C 102.300781 163.277344 102.417969 163.261719 102.457031 163.261719 C 102.496094 163.261719 102.609375 163.277344 102.609375 163.277344 L 102.609375 163.246094 L 119.820312 161.664062 L 136.75 155.128906 C 136.75 155.128906 142.890625 147.210938 146.769531 135.570312 C 149.824219 126.386719 150.695312 116.542969 150.695312 116.542969 Z M 136.863281 92.683594 " fill-opacity="1" fill-rule="nonzero"/><path fill="#a8d7e9" d="M 54.214844 116.539062 L 150.695312 116.539062 L 146.933594 123.695312 Z M 54.214844 116.539062 " fill-opacity="1" fill-rule="nonzero"/><path fill="#ffffff" d="M 73.582031 132.363281 C 73.308594 128.898438 75.671875 124.128906 71.722656 122.296875 C 69.691406 121.359375 66.261719 120.972656 64.691406 122.992188 C 64.105469 123.777344 63.800781 124.660156 63.765625 125.636719 C 63.203125 128.109375 64.53125 131.71875 65.148438 133.933594 C 65.882812 136.539062 68.414062 145.703125 73.085938 143.207031 C 76.265625 141.503906 73.777344 134.925781 73.582031 132.363281 Z M 73.582031 132.363281 " fill-opacity="1" fill-rule="nonzero"/><path fill="#ffffff" d="M 78.65625 97.667969 C 76.558594 94.671875 73.605469 95.671875 71.507812 97.84375 C 66.828125 100.6875 61.855469 112.320312 68.933594 113.457031 C 73.007812 114.113281 74.257812 109.148438 75.636719 106.460938 C 76.902344 104 80.71875 100.605469 78.65625 97.667969 Z M 78.65625 97.667969 " fill-opacity="1" fill-rule="nonzero"/><path fill="#d5e9f2" d="M 140.875 92.683594 C 140.875 92.683594 171.140625 73.871094 176.960938 73.871094 C 182.777344 73.871094 180.453125 84.351562 171.140625 95.792969 C 162.101562 106.894531 153.214844 113.515625 153.214844 113.515625 Z M 140.875 92.683594 " fill-opacity="1" fill-rule="nonzero"/><path fill="#a8d7e9" d="M 176.960938 73.871094 C 176.378906 73.871094 175.550781 74.0625 174.539062 74.398438 C 174.367188 78.492188 171.285156 85.175781 165.558594 92.214844 C 160.859375 97.980469 155.664062 103.261719 149.976562 108.058594 L 153.214844 113.519531 C 153.214844 113.519531 162.101562 106.898438 171.140625 95.796875 C 180.453125 84.351562 182.777344 73.871094 176.960938 73.871094 Z M 176.960938 73.871094 " fill-opacity="1" fill-rule="nonzero"/><path fill="#ffffff" d="M 170.449219 78.25 C 169.652344 77.726562 167.339844 78.90625 166.6875 79.226562 C 165.589844 79.765625 162.753906 81.546875 162.160156 83.253906 C 161.503906 84.148438 161.386719 85.019531 162.476562 85.5625 C 164.117188 86.382812 168.691406 82.675781 169.683594 81.457031 C 170.292969 80.695312 171.539062 78.964844 170.449219 78.25 Z M 170.449219 78.25 " fill-opacity="1" fill-rule="nonzero"/><path fill="#d5e9f2" d="M 67.964844 157.183594 C 67.964844 157.183594 74.113281 173.210938 79.257812 173.738281 C 84.402344 174.261719 84.550781 163.277344 84.550781 163.277344 Z M 67.964844 157.183594 " fill-opacity="1" fill-rule="nonzero"/><path fill="#a8d7e9" d="M 80.414062 161.691406 C 80.355469 163.246094 79.878906 170.832031 76.261719 171.792969 C 77.320312 172.898438 78.398438 173.632812 79.429688 173.738281 C 84.578125 174.261719 84.730469 163.273438 84.730469 163.273438 Z M 80.414062 161.691406 " fill-opacity="1" fill-rule="nonzero"/><path fill="#d5e9f2" d="M 121.566406 163.277344 C 121.566406 163.277344 129.425781 175.351562 139.550781 172.832031 C 143.785156 171.773438 137.105469 157.1875 137.105469 157.1875 Z M 121.566406 163.277344 " fill-opacity="1" fill-rule="nonzero"/><path fill="#a8d7e9" d="M 137.105469 157.183594 L 132.890625 158.835938 C 134.589844 163.101562 137.273438 171.011719 134.195312 171.78125 C 133.394531 171.980469 132.582031 172.09375 131.753906 172.117188 C 134.097656 173.101562 136.738281 173.527344 139.550781 172.828125 C 143.785156 171.769531 137.105469 157.183594 137.105469 157.183594 Z M 137.105469 157.183594 " fill-opacity="1" fill-rule="nonzero"/><path fill="#3aedb1" d="M 111.664062 65.410156 C 111.515625 65.40625 111.386719 65.453125 111.277344 65.558594 C 111.167969 65.660156 111.109375 65.789062 111.105469 65.9375 C 111.105469 65.972656 111.007812 68.417969 109.449219 69.703125 C 107.964844 70.929688 105.269531 71.339844 103.960938 71.335938 C 102.738281 71.390625 99.957031 70.929688 98.46875 69.703125 C 96.910156 68.417969 96.816406 65.972656 96.8125 65.9375 C 96.808594 65.789062 96.753906 65.660156 96.640625 65.558594 C 96.53125 65.453125 96.402344 65.40625 96.253906 65.410156 C 96.101562 65.414062 95.972656 65.472656 95.871094 65.582031 C 95.769531 65.691406 95.71875 65.820312 95.722656 65.972656 C 95.722656 66.089844 95.828125 68.9375 97.773438 70.546875 C 99.761719 72.183594 102.324219 72.433594 103.699219 72.433594 C 105.34375 72.433594 108.160156 72.183594 110.144531 70.546875 C 112.09375 68.9375 112.191406 66.089844 112.199219 65.972656 C 112.203125 65.820312 112.152344 65.6875 112.046875 65.578125 C 111.945312 65.46875 111.816406 65.414062 111.664062 65.410156 Z M 111.664062 65.410156 " fill-opacity="1" fill-rule="nonzero"/><path fill="#d5e9f2" d="M 52.769531 113.378906 C 52.769531 113.378906 42.445312 124.574219 37.585938 127.78125 C 33.902344 130.214844 31.132812 116.847656 43.910156 105.09375 C 56.414062 93.605469 66.582031 91.796875 66.582031 91.796875 Z M 52.769531 113.378906 " fill-opacity="1" fill-rule="nonzero"/><path fill="#a8d7e9" d="M 43.910156 105.09375 C 56.414062 93.605469 66.582031 91.796875 66.582031 91.796875 L 65.433594 93.589844 C 61.492188 95.566406 56.40625 98.753906 50.859375 103.855469 C 42.261719 111.75 40.691406 120.375 41.707031 124.445312 C 40.410156 125.652344 39.035156 126.761719 37.585938 127.78125 C 33.902344 130.214844 31.132812 116.847656 43.910156 105.09375 Z M 43.910156 105.09375 " fill-opacity="1" fill-rule="nonzero"/><path fill="#3aedb1" d="M 85.578125 58.210938 C 85.578125 58.636719 85.496094 59.050781 85.332031 59.445312 C 85.167969 59.839844 84.9375 60.1875 84.636719 60.488281 C 84.332031 60.792969 83.984375 61.023438 83.589844 61.1875 C 83.195312 61.351562 82.785156 61.433594 82.359375 61.433594 C 81.929688 61.433594 81.519531 61.351562 81.125 61.191406 C 80.730469 61.027344 80.382812 60.792969 80.078125 60.492188 C 79.777344 60.191406 79.542969 59.839844 79.382812 59.445312 C 79.21875 59.050781 79.136719 58.640625 79.136719 58.214844 C 79.136719 57.785156 79.21875 57.375 79.378906 56.980469 C 79.542969 56.585938 79.777344 56.238281 80.078125 55.9375 C 80.378906 55.632812 80.730469 55.402344 81.125 55.238281 C 81.519531 55.074219 81.929688 54.992188 82.355469 54.992188 C 82.785156 54.992188 83.195312 55.074219 83.589844 55.238281 C 83.984375 55.398438 84.332031 55.632812 84.632812 55.933594 C 84.9375 56.234375 85.167969 56.585938 85.332031 56.980469 C 85.496094 57.375 85.578125 57.785156 85.578125 58.210938 Z M 85.578125 58.210938 " fill-opacity="1" fill-rule="nonzero"/><path fill="#3aedb1" d="M 126.507812 58.210938 C 126.507812 58.636719 126.425781 59.050781 126.261719 59.445312 C 126.097656 59.839844 125.867188 60.1875 125.5625 60.488281 C 125.261719 60.792969 124.914062 61.023438 124.519531 61.1875 C 124.125 61.351562 123.714844 61.433594 123.285156 61.433594 C 122.859375 61.433594 122.449219 61.351562 122.054688 61.191406 C 121.660156 61.027344 121.3125 60.792969 121.007812 60.492188 C 120.707031 60.191406 120.472656 59.839844 120.308594 59.445312 C 120.144531 59.050781 120.066406 58.640625 120.066406 58.214844 C 120.0625 57.785156 120.144531 57.375 120.308594 56.980469 C 120.472656 56.585938 120.707031 56.238281 121.007812 55.9375 C 121.308594 55.632812 121.65625 55.402344 122.050781 55.238281 C 122.449219 55.074219 122.859375 54.992188 123.285156 54.992188 C 123.710938 54.992188 124.121094 55.074219 124.515625 55.238281 C 124.910156 55.402344 125.261719 55.632812 125.5625 55.933594 C 125.863281 56.238281 126.097656 56.585938 126.261719 56.980469 C 126.425781 57.375 126.507812 57.785156 126.507812 58.210938 Z M 126.507812 58.210938 " fill-opacity="1" fill-rule="nonzero"/><g clip-path="url(#258d985efa)"><path fill="#2a56f4" d="M 231.742188 91.421875 C 232.84375 94.789062 231.097656 98.394531 227.84375 99.457031 L 179.234375 115.363281 C 175.976562 116.425781 172.445312 114.554688 171.339844 111.183594 L 143.152344 25.003906 C 142.046875 21.636719 143.792969 18.046875 147.046875 16.972656 L 195.65625 1.0625 C 198.910156 -0.00390625 202.441406 1.867188 203.546875 5.242188 Z M 231.742188 91.421875 " fill-opacity="1" fill-rule="nonzero"/></g><g clip-path="url(#7915f30b7d)"><path fill="#0643f2" d="M 198.195312 0.800781 C 199.175781 1.613281 199.863281 2.625 200.253906 3.835938 L 228.445312 90.019531 C 229.550781 93.386719 227.808594 96.988281 224.550781 98.050781 L 175.9375 113.957031 C 175.113281 114.226562 174.265625 114.3125 173.402344 114.214844 C 174.214844 114.894531 175.136719 115.339844 176.171875 115.542969 C 177.210938 115.746094 178.234375 115.6875 179.238281 115.363281 L 227.851562 99.457031 C 231.105469 98.394531 232.851562 94.796875 231.75 91.421875 L 203.550781 5.253906 C 203.363281 4.664062 203.097656 4.113281 202.753906 3.601562 C 202.410156 3.089844 202 2.632812 201.527344 2.238281 C 201.050781 1.84375 200.53125 1.527344 199.964844 1.28125 C 199.398438 1.035156 198.808594 0.875 198.195312 0.800781 Z M 198.195312 0.800781 " fill-opacity="1" fill-rule="nonzero"/></g><path fill="#002b43" d="M 226.367188 89.074219 C 227.390625 92.199219 225.945312 95.476562 223.136719 96.394531 L 181.21875 110.109375 C 178.414062 111.027344 175.308594 109.238281 174.289062 106.113281 L 148.175781 26.28125 C 147.152344 23.160156 148.597656 19.882812 151.40625 18.964844 L 193.324219 5.253906 C 196.128906 4.335938 199.234375 6.121094 200.253906 9.246094 Z M 226.367188 89.074219 " fill-opacity="1" fill-rule="nonzero"/><path fill="#3aedb1" d="M 155.1875 25.796875 L 183.558594 16.515625 L 185.609375 22.78125 L 157.238281 32.0625 Z M 155.1875 25.796875 " fill-opacity="1" fill-rule="nonzero"/><path fill="#3aedb1" d="M 179.265625 51.402344 L 207.636719 42.121094 L 209.6875 48.390625 L 181.3125 57.667969 Z M 179.265625 51.402344 " fill-opacity="1" fill-rule="nonzero"/><path fill="#3aedb1" d="M 191.007812 57.34375 L 210.527344 50.957031 L 212.578125 57.226562 L 193.058594 63.613281 Z M 191.007812 57.34375 " fill-opacity="1" fill-rule="nonzero"/><path fill="#3aedb1" d="M 175.90625 89.085938 L 195.425781 82.703125 L 197.476562 88.972656 L 177.957031 95.355469 Z M 175.90625 89.085938 " fill-opacity="1" fill-rule="nonzero"/><path fill="#3aedb1" d="M 178.78125 97.875 L 198.300781 91.488281 L 200.351562 97.757812 L 180.832031 104.140625 Z M 178.78125 97.875 " fill-opacity="1" fill-rule="nonzero"/><path fill="#3aedb1" d="M 174.367188 73.617188 L 213.730469 60.742188 L 215.777344 67.011719 L 176.417969 79.882812 Z M 174.367188 73.617188 " fill-opacity="1" fill-rule="nonzero"/><path fill="#3aedb1" d="M 158.769531 36.757812 L 178.332031 30.359375 L 180.285156 36.332031 L 160.722656 42.730469 Z M 158.769531 36.757812 " fill-opacity="1" fill-rule="nonzero"/><path fill="#ffffff" d="M 151.871094 37.585938 L 170.9375 12.574219 L 178.394531 10.109375 L 156.261719 51 Z M 151.871094 37.585938 " fill-opacity="0.2" fill-rule="nonzero"/><path fill="#ffffff" d="M 161.96875 68.449219 L 166.496094 82.296875 L 202.207031 15.214844 L 200.253906 9.246094 Z M 161.96875 68.449219 " fill-opacity="0.2" fill-rule="nonzero"/><path fill="#ffffff" d="M 190.722656 107 L 215.984375 57.335938 L 218.121094 63.855469 L 208.214844 101.273438 Z M 190.722656 107 " fill-opacity="0.2" fill-rule="nonzero"/><path fill="#ffffff" d="M 167.785156 86.230469 L 203.21875 18.3125 L 205 23.75 L 170.21875 93.671875 Z M 167.785156 86.230469 " fill-opacity="0.2" fill-rule="nonzero"/></svg>